<svg xmlns="http://www.w3.org/2000/svg" version="1.1" xmlns:xlink="http://www.w3.org/1999/xlink" xmlns:svgjs="http://svgjs.com/svgjs" width="1440" height="560" preserveAspectRatio="none" viewBox="0 0 1440 560"><g mask="url(&quot;#SvgjsMask1004&quot;)" fill="none"><rect width="1440" height="560" x="0" y="0" fill="rgba(246, 243, 252, 1)"></rect><path d="M22.157,67.697C39.352,67.813,56.063,61.53,65.768,47.336C76.948,30.986,83.354,9.695,73.605,-7.547C63.749,-24.978,42.128,-31.26,22.157,-29.792C4.612,-28.502,-9.116,-16.209,-17.671,-0.838C-25.954,14.044,-29.005,32.028,-20.447,46.754C-11.925,61.419,5.196,67.583,22.157,67.697" fill="rgba(28, 83, 142, 0.4)" class="triangle-float2"></path><path d="M85.69202431283398-72.61028696969889L-56.7800558414456 16.41614942147953 174.7184607040124 69.86179318458069z" fill="rgba(28, 83, 142, 0.4)" class="triangle-float1"></path><path d="M78.92039007420829-73.98799152640353L-58.69715336634232 22.37284978057221 37.66368794063342 159.99039322112282 175.28123138118403 63.62955191414707z" fill="rgba(28, 83, 142, 0.4)" class="triangle-float2"></path><path d="M1422.5910961401498 182.22578786018298L1501.4623186881795 33.89059225988328 1353.1271230878797-44.980630288146386 1274.2559005398502 103.35456531215331z" fill="rgba(28, 83, 142, 0.4)" class="triangle-float2"></path><path d="M1383.9999999999998-75.99326582148886L1265.2060607606597 42.80067341785113 1383.9999999999998 161.59461265719108 1502.7939392393398 42.8006734178511z" fill="rgba(28, 83, 142, 0.4)" class="triangle-float1"></path><path d="M1258.4669444333945 96.78816228188998L1408.1560404970403 173.05856623813384 1484.4264444532841 23.369470174488 1334.7373483896383-52.90093378175584z" fill="rgba(28, 83, 142, 0.4)" class="triangle-float3"></path><path d="M-23.4355303262738 398.58549082784737L-46.8166112875648 564.9505263764312 119.54842426101902 588.3316073377222 142.92950522231 421.96657178913836z" fill="rgba(28, 83, 142, 0.4)" class="triangle-float2"></path><path d="M147.9153902811394 487.7928367510865L-33.73947547382505 425.0503403179914-4.566581625780742 590.4980428240424z" fill="rgba(28, 83, 142, 0.4)" class="triangle-float3"></path><path d="M45.116,552.955C67.731,552.321,90.279,545.283,102.546,526.273C115.875,505.617,117.748,479.525,106.654,457.587C94.374,433.304,72.316,413.488,45.116,412.707C16.737,411.893,-9.348,428.901,-22.86,453.87C-35.771,477.728,-33.518,507.286,-18.172,529.655C-4.542,549.523,21.031,553.63,45.116,552.955" fill="rgba(28, 83, 142, 0.4)" class="triangle-float2"></path><path d="M1508.0330978858858 549.1443556942887L1437.0332299134484 396.8846474721315 1284.773521691291 467.88451544456905 1355.7733896637287 620.1442236667262z" fill="rgba(28, 83, 142, 0.4)" class="triangle-float2"></path><path d="M1503.6265246504138 559.7827645629557L1446.1671405717013 401.9144042709231 1288.2987802796688 459.37378834963545 1345.7581643583812 617.242148641668z" fill="rgba(28, 83, 142, 0.4)" class="triangle-float1"></path><path d="M1442.736569831318 576.5336230693173L1409.5443672042625 387.23653171322803 1278.9838456794914 492.9623574096007z" fill="rgba(28, 83, 142, 0.4)" class="triangle-float1"></path></g><defs><mask id="SvgjsMask1004"><rect width="1440" height="560" fill="#ffffff"></rect></mask><style>
            @keyframes float1 {
                0%{transform: translate(0, 0)}
                50%{transform: translate(-10px, 0)}
                100%{transform: translate(0, 0)}
            }

            .triangle-float1 {
                animation: float1 5s infinite;
            }

            @keyframes float2 {
                0%{transform: translate(0, 0)}
                50%{transform: translate(-5px, -5px)}
                100%{transform: translate(0, 0)}
            }

            .triangle-float2 {
                animation: float2 4s infinite;
            }

            @keyframes float3 {
                0%{transform: translate(0, 0)}
                50%{transform: translate(0, -10px)}
                100%{transform: translate(0, 0)}
            }

            .triangle-float3 {
                animation: float3 6s infinite;
            }
        </style></defs></svg>